<svg xmlns="http://www.w3.org/2000/svg" viewBox="0 0 1200 400" width="1200" height="400" role="img" aria-label="pica - prototype in HTML, port to Figma on approval, verify by measurement, never by eye">
  <g>
    <line x1="64" y1="78" x2="64" y2="58" stroke="#59636e" stroke-width="1.5"/>
    <text x="64" y="44" fill="#59636e" font-size="12" font-family="ui-monospace, SFMono-Regular, Menlo, monospace" text-anchor="middle" letter-spacing="0.4">0</text>
    <line x1="73" y1="78" x2="73" y2="71" stroke="#d1d9e0" stroke-width="1"/>
    <line x1="82" y1="78" x2="82" y2="71" stroke="#d1d9e0" stroke-width="1"/>
    <line x1="91" y1="78" x2="91" y2="71" stroke="#d1d9e0" stroke-width="1"/>
    <line x1="100" y1="78" x2="100" y2="71" stroke="#d1d9e0" stroke-width="1"/>
    <line x1="109" y1="78" x2="109" y2="71" stroke="#d1d9e0" stroke-width="1"/>
    <line x1="118" y1="78" x2="118" y2="71" stroke="#d1d9e0" stroke-width="1"/>
    <line x1="127" y1="78" x2="127" y2="71" stroke="#d1d9e0" stroke-width="1"/>
    <line x1="136" y1="78" x2="136" y2="71" stroke="#d1d9e0" stroke-width="1"/>
    <line x1="145" y1="78" x2="145" y2="71" stroke="#d1d9e0" stroke-width="1"/>
    <line x1="154" y1="78" x2="154" y2="71" stroke="#d1d9e0" stroke-width="1"/>
    <line x1="163" y1="78" x2="163" y2="71" stroke="#d1d9e0" stroke-width="1"/>
    <line x1="172" y1="78" x2="172" y2="58" stroke="#59636e" stroke-width="1.5"/>
    <text x="172" y="44" fill="#59636e" font-size="12" font-family="ui-monospace, SFMono-Regular, Menlo, monospace" text-anchor="middle" letter-spacing="0.4">12</text>
    <line x1="181" y1="78" x2="181" y2="71" stroke="#d1d9e0" stroke-width="1"/>
    <line x1="190" y1="78" x2="190" y2="71" stroke="#d1d9e0" stroke-width="1"/>
    <line x1="199" y1="78" x2="199" y2="71" stroke="#d1d9e0" stroke-width="1"/>
    <line x1="208" y1="78" x2="208" y2="71" stroke="#d1d9e0" stroke-width="1"/>
    <line x1="217" y1="78" x2="217" y2="71" stroke="#d1d9e0" stroke-width="1"/>
    <line x1="226" y1="78" x2="226" y2="71" stroke="#d1d9e0" stroke-width="1"/>
    <line x1="235" y1="78" x2="235" y2="71" stroke="#d1d9e0" stroke-width="1"/>
    <line x1="244" y1="78" x2="244" y2="71" stroke="#d1d9e0" stroke-width="1"/>
    <line x1="253" y1="78" x2="253" y2="71" stroke="#d1d9e0" stroke-width="1"/>
    <line x1="262" y1="78" x2="262" y2="71" stroke="#d1d9e0" stroke-width="1"/>
    <line x1="271" y1="78" x2="271" y2="71" stroke="#d1d9e0" stroke-width="1"/>
    <line x1="280" y1="78" x2="280" y2="58" stroke="#59636e" stroke-width="1.5"/>
    <text x="280" y="44" fill="#59636e" font-size="12" font-family="ui-monospace, SFMono-Regular, Menlo, monospace" text-anchor="middle" letter-spacing="0.4">24</text>
    <line x1="289" y1="78" x2="289" y2="71" stroke="#d1d9e0" stroke-width="1"/>
    <line x1="298" y1="78" x2="298" y2="71" stroke="#d1d9e0" stroke-width="1"/>
    <line x1="307" y1="78" x2="307" y2="71" stroke="#d1d9e0" stroke-width="1"/>
    <line x1="316" y1="78" x2="316" y2="71" stroke="#d1d9e0" stroke-width="1"/>
    <line x1="325" y1="78" x2="325" y2="71" stroke="#d1d9e0" stroke-width="1"/>
    <line x1="334" y1="78" x2="334" y2="71" stroke="#d1d9e0" stroke-width="1"/>
    <line x1="343" y1="78" x2="343" y2="71" stroke="#d1d9e0" stroke-width="1"/>
    <line x1="352" y1="78" x2="352" y2="71" stroke="#d1d9e0" stroke-width="1"/>
    <line x1="361" y1="78" x2="361" y2="71" stroke="#d1d9e0" stroke-width="1"/>
    <line x1="370" y1="78" x2="370" y2="71" stroke="#d1d9e0" stroke-width="1"/>
    <line x1="379" y1="78" x2="379" y2="71" stroke="#d1d9e0" stroke-width="1"/>
    <line x1="388" y1="78" x2="388" y2="58" stroke="#59636e" stroke-width="1.5"/>
    <text x="388" y="44" fill="#59636e" font-size="12" font-family="ui-monospace, SFMono-Regular, Menlo, monospace" text-anchor="middle" letter-spacing="0.4">36</text>
    <line x1="397" y1="78" x2="397" y2="71" stroke="#d1d9e0" stroke-width="1"/>
    <line x1="406" y1="78" x2="406" y2="71" stroke="#d1d9e0" stroke-width="1"/>
    <line x1="415" y1="78" x2="415" y2="71" stroke="#d1d9e0" stroke-width="1"/>
    <line x1="424" y1="78" x2="424" y2="71" stroke="#d1d9e0" stroke-width="1"/>
    <line x1="433" y1="78" x2="433" y2="71" stroke="#d1d9e0" stroke-width="1"/>
    <line x1="442" y1="78" x2="442" y2="71" stroke="#d1d9e0" stroke-width="1"/>
    <line x1="451" y1="78" x2="451" y2="71" stroke="#d1d9e0" stroke-width="1"/>
    <line x1="460" y1="78" x2="460" y2="71" stroke="#d1d9e0" stroke-width="1"/>
    <line x1="469" y1="78" x2="469" y2="71" stroke="#d1d9e0" stroke-width="1"/>
    <line x1="478" y1="78" x2="478" y2="71" stroke="#d1d9e0" stroke-width="1"/>
    <line x1="487" y1="78" x2="487" y2="71" stroke="#d1d9e0" stroke-width="1"/>
    <line x1="496" y1="78" x2="496" y2="58" stroke="#59636e" stroke-width="1.5"/>
    <text x="496" y="44" fill="#59636e" font-size="12" font-family="ui-monospace, SFMono-Regular, Menlo, monospace" text-anchor="middle" letter-spacing="0.4">48</text>
    <line x1="505" y1="78" x2="505" y2="71" stroke="#d1d9e0" stroke-width="1"/>
    <line x1="514" y1="78" x2="514" y2="71" stroke="#d1d9e0" stroke-width="1"/>
    <line x1="523" y1="78" x2="523" y2="71" stroke="#d1d9e0" stroke-width="1"/>
    <line x1="532" y1="78" x2="532" y2="71" stroke="#d1d9e0" stroke-width="1"/>
    <line x1="541" y1="78" x2="541" y2="71" stroke="#d1d9e0" stroke-width="1"/>
    <line x1="550" y1="78" x2="550" y2="71" stroke="#d1d9e0" stroke-width="1"/>
    <line x1="559" y1="78" x2="559" y2="71" stroke="#d1d9e0" stroke-width="1"/>
    <line x1="568" y1="78" x2="568" y2="71" stroke="#d1d9e0" stroke-width="1"/>
    <line x1="577" y1="78" x2="577" y2="71" stroke="#d1d9e0" stroke-width="1"/>
    <line x1="586" y1="78" x2="586" y2="71" stroke="#d1d9e0" stroke-width="1"/>
    <line x1="595" y1="78" x2="595" y2="71" stroke="#d1d9e0" stroke-width="1"/>
    <line x1="604" y1="78" x2="604" y2="58" stroke="#59636e" stroke-width="1.5"/>
    <text x="604" y="44" fill="#59636e" font-size="12" font-family="ui-monospace, SFMono-Regular, Menlo, monospace" text-anchor="middle" letter-spacing="0.4">60</text>
    <line x1="613" y1="78" x2="613" y2="71" stroke="#d1d9e0" stroke-width="1"/>
    <line x1="622" y1="78" x2="622" y2="71" stroke="#d1d9e0" stroke-width="1"/>
    <line x1="631" y1="78" x2="631" y2="71" stroke="#d1d9e0" stroke-width="1"/>
    <line x1="640" y1="78" x2="640" y2="71" stroke="#d1d9e0" stroke-width="1"/>
    <line x1="649" y1="78" x2="649" y2="71" stroke="#d1d9e0" stroke-width="1"/>
    <line x1="658" y1="78" x2="658" y2="71" stroke="#d1d9e0" stroke-width="1"/>
    <line x1="667" y1="78" x2="667" y2="71" stroke="#d1d9e0" stroke-width="1"/>
    <line x1="676" y1="78" x2="676" y2="71" stroke="#d1d9e0" stroke-width="1"/>
    <line x1="685" y1="78" x2="685" y2="71" stroke="#d1d9e0" stroke-width="1"/>
    <line x1="694" y1="78" x2="694" y2="71" stroke="#d1d9e0" stroke-width="1"/>
    <line x1="703" y1="78" x2="703" y2="71" stroke="#d1d9e0" stroke-width="1"/>
    <line x1="712" y1="78" x2="712" y2="58" stroke="#59636e" stroke-width="1.5"/>
    <text x="712" y="44" fill="#59636e" font-size="12" font-family="ui-monospace, SFMono-Regular, Menlo, monospace" text-anchor="middle" letter-spacing="0.4">72</text>
    <line x1="721" y1="78" x2="721" y2="71" stroke="#d1d9e0" stroke-width="1"/>
    <line x1="730" y1="78" x2="730" y2="71" stroke="#d1d9e0" stroke-width="1"/>
    <line x1="739" y1="78" x2="739" y2="71" stroke="#d1d9e0" stroke-width="1"/>
    <line x1="748" y1="78" x2="748" y2="71" stroke="#d1d9e0" stroke-width="1"/>
    <line x1="757" y1="78" x2="757" y2="71" stroke="#d1d9e0" stroke-width="1"/>
    <line x1="766" y1="78" x2="766" y2="71" stroke="#d1d9e0" stroke-width="1"/>
    <line x1="775" y1="78" x2="775" y2="71" stroke="#d1d9e0" stroke-width="1"/>
    <line x1="784" y1="78" x2="784" y2="71" stroke="#d1d9e0" stroke-width="1"/>
    <line x1="793" y1="78" x2="793" y2="71" stroke="#d1d9e0" stroke-width="1"/>
    <line x1="802" y1="78" x2="802" y2="71" stroke="#d1d9e0" stroke-width="1"/>
    <line x1="811" y1="78" x2="811" y2="71" stroke="#d1d9e0" stroke-width="1"/>
    <line x1="820" y1="78" x2="820" y2="58" stroke="#59636e" stroke-width="1.5"/>
    <text x="820" y="44" fill="#59636e" font-size="12" font-family="ui-monospace, SFMono-Regular, Menlo, monospace" text-anchor="middle" letter-spacing="0.4">84</text>
    <line x1="829" y1="78" x2="829" y2="71" stroke="#d1d9e0" stroke-width="1"/>
    <line x1="838" y1="78" x2="838" y2="71" stroke="#d1d9e0" stroke-width="1"/>
    <line x1="847" y1="78" x2="847" y2="71" stroke="#d1d9e0" stroke-width="1"/>
    <line x1="856" y1="78" x2="856" y2="71" stroke="#d1d9e0" stroke-width="1"/>
    <line x1="865" y1="78" x2="865" y2="71" stroke="#d1d9e0" stroke-width="1"/>
    <line x1="874" y1="78" x2="874" y2="71" stroke="#d1d9e0" stroke-width="1"/>
    <line x1="883" y1="78" x2="883" y2="71" stroke="#d1d9e0" stroke-width="1"/>
    <line x1="892" y1="78" x2="892" y2="71" stroke="#d1d9e0" stroke-width="1"/>
    <line x1="901" y1="78" x2="901" y2="71" stroke="#d1d9e0" stroke-width="1"/>
    <line x1="910" y1="78" x2="910" y2="71" stroke="#d1d9e0" stroke-width="1"/>
    <line x1="919" y1="78" x2="919" y2="71" stroke="#d1d9e0" stroke-width="1"/>
    <line x1="928" y1="78" x2="928" y2="58" stroke="#59636e" stroke-width="1.5"/>
    <text x="928" y="44" fill="#59636e" font-size="12" font-family="ui-monospace, SFMono-Regular, Menlo, monospace" text-anchor="middle" letter-spacing="0.4">96</text>
    <line x1="937" y1="78" x2="937" y2="71" stroke="#d1d9e0" stroke-width="1"/>
    <line x1="946" y1="78" x2="946" y2="71" stroke="#d1d9e0" stroke-width="1"/>
    <line x1="955" y1="78" x2="955" y2="71" stroke="#d1d9e0" stroke-width="1"/>
    <line x1="964" y1="78" x2="964" y2="71" stroke="#d1d9e0" stroke-width="1"/>
    <line x1="973" y1="78" x2="973" y2="71" stroke="#d1d9e0" stroke-width="1"/>
    <line x1="982" y1="78" x2="982" y2="71" stroke="#d1d9e0" stroke-width="1"/>
    <line x1="991" y1="78" x2="991" y2="71" stroke="#d1d9e0" stroke-width="1"/>
    <line x1="1000" y1="78" x2="1000" y2="71" stroke="#d1d9e0" stroke-width="1"/>
    <line x1="1009" y1="78" x2="1009" y2="71" stroke="#d1d9e0" stroke-width="1"/>
    <line x1="1018" y1="78" x2="1018" y2="71" stroke="#d1d9e0" stroke-width="1"/>
    <line x1="1027" y1="78" x2="1027" y2="71" stroke="#d1d9e0" stroke-width="1"/>
    <line x1="1036" y1="78" x2="1036" y2="58" stroke="#59636e" stroke-width="1.5"/>
    <text x="1036" y="44" fill="#59636e" font-size="12" font-family="ui-monospace, SFMono-Regular, Menlo, monospace" text-anchor="middle" letter-spacing="0.4">108</text>
    <line x1="1045" y1="78" x2="1045" y2="71" stroke="#d1d9e0" stroke-width="1"/>
    <line x1="1054" y1="78" x2="1054" y2="71" stroke="#d1d9e0" stroke-width="1"/>
    <line x1="1063" y1="78" x2="1063" y2="71" stroke="#d1d9e0" stroke-width="1"/>
    <line x1="1072" y1="78" x2="1072" y2="71" stroke="#d1d9e0" stroke-width="1"/>
    <line x1="1081" y1="78" x2="1081" y2="71" stroke="#d1d9e0" stroke-width="1"/>
    <line x1="1090" y1="78" x2="1090" y2="71" stroke="#d1d9e0" stroke-width="1"/>
    <line x1="1099" y1="78" x2="1099" y2="71" stroke="#d1d9e0" stroke-width="1"/>
    <line x1="1108" y1="78" x2="1108" y2="71" stroke="#d1d9e0" stroke-width="1"/>
    <line x1="1117" y1="78" x2="1117" y2="71" stroke="#d1d9e0" stroke-width="1"/>
    <line x1="1126" y1="78" x2="1126" y2="71" stroke="#d1d9e0" stroke-width="1"/>
    <line x1="1135" y1="78" x2="1135" y2="71" stroke="#d1d9e0" stroke-width="1"/>
  </g>

  <text x="64" y="252" fill="#1f2328" font-size="150" font-family="Iowan Old Style, Palatino Linotype, Palatino, Georgia, 'Times New Roman', serif" letter-spacing="4">pica</text>

  <text x="1136" y="216" fill="#1f2328" font-size="21" font-family="-apple-system, BlinkMacSystemFont, 'Segoe UI', Helvetica, Arial, sans-serif" text-anchor="end">Prototype in HTML. Port to Figma on approval.</text>
  <text x="1136" y="248" fill="#59636e" font-size="21" font-family="-apple-system, BlinkMacSystemFont, 'Segoe UI', Helvetica, Arial, sans-serif" text-anchor="end">Verify by measurement, never by eye.</text>

  <g>
    <line x1="928" y1="300" x2="1036" y2="300" stroke="#bc4c00" stroke-width="1.5"/>
    <line x1="928" y1="295" x2="928" y2="305" stroke="#bc4c00" stroke-width="1.5"/>
    <line x1="1036" y1="295" x2="1036" y2="305" stroke="#bc4c00" stroke-width="1.5"/>
    <text x="914" y="304" fill="#bc4c00" font-size="12" font-family="ui-monospace, SFMono-Regular, Menlo, monospace" text-anchor="end" letter-spacing="0.4">1 pica = 12 points</text>
  </g>

  <g>
    <line x1="64" y1="350" x2="64" y2="370" stroke="#59636e" stroke-width="1.5"/>
    <text x="64" y="380" fill="#59636e" font-size="12" font-family="ui-monospace, SFMono-Regular, Menlo, monospace" text-anchor="middle" letter-spacing="0.4">0</text>
    <line x1="73" y1="350" x2="73" y2="357" stroke="#d1d9e0" stroke-width="1"/>
    <line x1="82" y1="350" x2="82" y2="357" stroke="#d1d9e0" stroke-width="1"/>
    <line x1="91" y1="350" x2="91" y2="357" stroke="#d1d9e0" stroke-width="1"/>
    <line x1="100" y1="350" x2="100" y2="357" stroke="#d1d9e0" stroke-width="1"/>
    <line x1="109" y1="350" x2="109" y2="357" stroke="#d1d9e0" stroke-width="1"/>
    <line x1="118" y1="350" x2="118" y2="357" stroke="#d1d9e0" stroke-width="1"/>
    <line x1="127" y1="350" x2="127" y2="357" stroke="#d1d9e0" stroke-width="1"/>
    <line x1="136" y1="350" x2="136" y2="357" stroke="#d1d9e0" stroke-width="1"/>
    <line x1="145" y1="350" x2="145" y2="357" stroke="#d1d9e0" stroke-width="1"/>
    <line x1="154" y1="350" x2="154" y2="357" stroke="#d1d9e0" stroke-width="1"/>
    <line x1="163" y1="350" x2="163" y2="357" stroke="#d1d9e0" stroke-width="1"/>
    <line x1="172" y1="350" x2="172" y2="370" stroke="#59636e" stroke-width="1.5"/>
    <text x="172" y="380" fill="#59636e" font-size="12" font-family="ui-monospace, SFMono-Regular, Menlo, monospace" text-anchor="middle" letter-spacing="0.4">12</text>
    <line x1="181" y1="350" x2="181" y2="357" stroke="#d1d9e0" stroke-width="1"/>
    <line x1="190" y1="350" x2="190" y2="357" stroke="#d1d9e0" stroke-width="1"/>
    <line x1="199" y1="350" x2="199" y2="357" stroke="#d1d9e0" stroke-width="1"/>
    <line x1="208" y1="350" x2="208" y2="357" stroke="#d1d9e0" stroke-width="1"/>
    <line x1="217" y1="350" x2="217" y2="357" stroke="#d1d9e0" stroke-width="1"/>
    <line x1="226" y1="350" x2="226" y2="357" stroke="#d1d9e0" stroke-width="1"/>
    <line x1="235" y1="350" x2="235" y2="357" stroke="#d1d9e0" stroke-width="1"/>
    <line x1="244" y1="350" x2="244" y2="357" stroke="#d1d9e0" stroke-width="1"/>
    <line x1="253" y1="350" x2="253" y2="357" stroke="#d1d9e0" stroke-width="1"/>
    <line x1="262" y1="350" x2="262" y2="357" stroke="#d1d9e0" stroke-width="1"/>
    <line x1="271" y1="350" x2="271" y2="357" stroke="#d1d9e0" stroke-width="1"/>
    <line x1="280" y1="350" x2="280" y2="370" stroke="#59636e" stroke-width="1.5"/>
    <text x="280" y="380" fill="#59636e" font-size="12" font-family="ui-monospace, SFMono-Regular, Menlo, monospace" text-anchor="middle" letter-spacing="0.4">24</text>
    <line x1="289" y1="350" x2="289" y2="357" stroke="#d1d9e0" stroke-width="1"/>
    <line x1="298" y1="350" x2="298" y2="357" stroke="#d1d9e0" stroke-width="1"/>
    <line x1="307" y1="350" x2="307" y2="357" stroke="#d1d9e0" stroke-width="1"/>
    <line x1="316" y1="350" x2="316" y2="357" stroke="#d1d9e0" stroke-width="1"/>
    <line x1="325" y1="350" x2="325" y2="357" stroke="#d1d9e0" stroke-width="1"/>
    <line x1="334" y1="350" x2="334" y2="357" stroke="#d1d9e0" stroke-width="1"/>
    <line x1="343" y1="350" x2="343" y2="357" stroke="#d1d9e0" stroke-width="1"/>
    <line x1="352" y1="350" x2="352" y2="357" stroke="#d1d9e0" stroke-width="1"/>
    <line x1="361" y1="350" x2="361" y2="357" stroke="#d1d9e0" stroke-width="1"/>
    <line x1="370" y1="350" x2="370" y2="357" stroke="#d1d9e0" stroke-width="1"/>
    <line x1="379" y1="350" x2="379" y2="357" stroke="#d1d9e0" stroke-width="1"/>
    <line x1="388" y1="350" x2="388" y2="370" stroke="#59636e" stroke-width="1.5"/>
    <text x="388" y="380" fill="#59636e" font-size="12" font-family="ui-monospace, SFMono-Regular, Menlo, monospace" text-anchor="middle" letter-spacing="0.4">36</text>
    <line x1="397" y1="350" x2="397" y2="357" stroke="#d1d9e0" stroke-width="1"/>
    <line x1="406" y1="350" x2="406" y2="357" stroke="#d1d9e0" stroke-width="1"/>
    <line x1="415" y1="350" x2="415" y2="357" stroke="#d1d9e0" stroke-width="1"/>
    <line x1="424" y1="350" x2="424" y2="357" stroke="#d1d9e0" stroke-width="1"/>
    <line x1="433" y1="350" x2="433" y2="357" stroke="#d1d9e0" stroke-width="1"/>
    <line x1="442" y1="350" x2="442" y2="357" stroke="#d1d9e0" stroke-width="1"/>
    <line x1="451" y1="350" x2="451" y2="357" stroke="#d1d9e0" stroke-width="1"/>
    <line x1="460" y1="350" x2="460" y2="357" stroke="#d1d9e0" stroke-width="1"/>
    <line x1="469" y1="350" x2="469" y2="357" stroke="#d1d9e0" stroke-width="1"/>
    <line x1="478" y1="350" x2="478" y2="357" stroke="#d1d9e0" stroke-width="1"/>
    <line x1="487" y1="350" x2="487" y2="357" stroke="#d1d9e0" stroke-width="1"/>
    <line x1="496" y1="350" x2="496" y2="370" stroke="#59636e" stroke-width="1.5"/>
    <text x="496" y="380" fill="#59636e" font-size="12" font-family="ui-monospace, SFMono-Regular, Menlo, monospace" text-anchor="middle" letter-spacing="0.4">48</text>
    <line x1="505" y1="350" x2="505" y2="357" stroke="#d1d9e0" stroke-width="1"/>
    <line x1="514" y1="350" x2="514" y2="357" stroke="#d1d9e0" stroke-width="1"/>
    <line x1="523" y1="350" x2="523" y2="357" stroke="#d1d9e0" stroke-width="1"/>
    <line x1="532" y1="350" x2="532" y2="357" stroke="#d1d9e0" stroke-width="1"/>
    <line x1="541" y1="350" x2="541" y2="357" stroke="#d1d9e0" stroke-width="1"/>
    <line x1="550" y1="350" x2="550" y2="357" stroke="#d1d9e0" stroke-width="1"/>
    <line x1="559" y1="350" x2="559" y2="357" stroke="#d1d9e0" stroke-width="1"/>
    <line x1="568" y1="350" x2="568" y2="357" stroke="#d1d9e0" stroke-width="1"/>
    <line x1="577" y1="350" x2="577" y2="357" stroke="#d1d9e0" stroke-width="1"/>
    <line x1="586" y1="350" x2="586" y2="357" stroke="#d1d9e0" stroke-width="1"/>
    <line x1="595" y1="350" x2="595" y2="357" stroke="#d1d9e0" stroke-width="1"/>
    <line x1="604" y1="350" x2="604" y2="370" stroke="#59636e" stroke-width="1.5"/>
    <text x="604" y="380" fill="#59636e" font-size="12" font-family="ui-monospace, SFMono-Regular, Menlo, monospace" text-anchor="middle" letter-spacing="0.4">60</text>
    <line x1="613" y1="350" x2="613" y2="357" stroke="#d1d9e0" stroke-width="1"/>
    <line x1="622" y1="350" x2="622" y2="357" stroke="#d1d9e0" stroke-width="1"/>
    <line x1="631" y1="350" x2="631" y2="357" stroke="#d1d9e0" stroke-width="1"/>
    <line x1="640" y1="350" x2="640" y2="357" stroke="#d1d9e0" stroke-width="1"/>
    <line x1="649" y1="350" x2="649" y2="357" stroke="#d1d9e0" stroke-width="1"/>
    <line x1="658" y1="350" x2="658" y2="357" stroke="#d1d9e0" stroke-width="1"/>
    <line x1="667" y1="350" x2="667" y2="357" stroke="#d1d9e0" stroke-width="1"/>
    <line x1="676" y1="350" x2="676" y2="357" stroke="#d1d9e0" stroke-width="1"/>
    <line x1="685" y1="350" x2="685" y2="357" stroke="#d1d9e0" stroke-width="1"/>
    <line x1="694" y1="350" x2="694" y2="357" stroke="#d1d9e0" stroke-width="1"/>
    <line x1="703" y1="350" x2="703" y2="357" stroke="#d1d9e0" stroke-width="1"/>
    <line x1="712" y1="350" x2="712" y2="370" stroke="#59636e" stroke-width="1.5"/>
    <text x="712" y="380" fill="#59636e" font-size="12" font-family="ui-monospace, SFMono-Regular, Menlo, monospace" text-anchor="middle" letter-spacing="0.4">72</text>
    <line x1="721" y1="350" x2="721" y2="357" stroke="#d1d9e0" stroke-width="1"/>
    <line x1="730" y1="350" x2="730" y2="357" stroke="#d1d9e0" stroke-width="1"/>
    <line x1="739" y1="350" x2="739" y2="357" stroke="#d1d9e0" stroke-width="1"/>
    <line x1="748" y1="350" x2="748" y2="357" stroke="#d1d9e0" stroke-width="1"/>
    <line x1="757" y1="350" x2="757" y2="357" stroke="#d1d9e0" stroke-width="1"/>
    <line x1="766" y1="350" x2="766" y2="357" stroke="#d1d9e0" stroke-width="1"/>
    <line x1="775" y1="350" x2="775" y2="357" stroke="#d1d9e0" stroke-width="1"/>
    <line x1="784" y1="350" x2="784" y2="357" stroke="#d1d9e0" stroke-width="1"/>
    <line x1="793" y1="350" x2="793" y2="357" stroke="#d1d9e0" stroke-width="1"/>
    <line x1="802" y1="350" x2="802" y2="357" stroke="#d1d9e0" stroke-width="1"/>
    <line x1="811" y1="350" x2="811" y2="357" stroke="#d1d9e0" stroke-width="1"/>
    <line x1="820" y1="350" x2="820" y2="370" stroke="#59636e" stroke-width="1.5"/>
    <text x="820" y="380" fill="#59636e" font-size="12" font-family="ui-monospace, SFMono-Regular, Menlo, monospace" text-anchor="middle" letter-spacing="0.4">84</text>
    <line x1="829" y1="350" x2="829" y2="357" stroke="#d1d9e0" stroke-width="1"/>
    <line x1="838" y1="350" x2="838" y2="357" stroke="#d1d9e0" stroke-width="1"/>
    <line x1="847" y1="350" x2="847" y2="357" stroke="#d1d9e0" stroke-width="1"/>
    <line x1="856" y1="350" x2="856" y2="357" stroke="#d1d9e0" stroke-width="1"/>
    <line x1="865" y1="350" x2="865" y2="357" stroke="#d1d9e0" stroke-width="1"/>
    <line x1="874" y1="350" x2="874" y2="357" stroke="#d1d9e0" stroke-width="1"/>
    <line x1="883" y1="350" x2="883" y2="357" stroke="#d1d9e0" stroke-width="1"/>
    <line x1="892" y1="350" x2="892" y2="357" stroke="#d1d9e0" stroke-width="1"/>
    <line x1="901" y1="350" x2="901" y2="357" stroke="#d1d9e0" stroke-width="1"/>
    <line x1="910" y1="350" x2="910" y2="357" stroke="#d1d9e0" stroke-width="1"/>
    <line x1="919" y1="350" x2="919" y2="357" stroke="#d1d9e0" stroke-width="1"/>
    <line x1="928" y1="350" x2="928" y2="370" stroke="#59636e" stroke-width="1.5"/>
    <text x="928" y="380" fill="#59636e" font-size="12" font-family="ui-monospace, SFMono-Regular, Menlo, monospace" text-anchor="middle" letter-spacing="0.4">96</text>
    <line x1="937" y1="350" x2="937" y2="357" stroke="#d1d9e0" stroke-width="1"/>
    <line x1="946" y1="350" x2="946" y2="357" stroke="#d1d9e0" stroke-width="1"/>
    <line x1="955" y1="350" x2="955" y2="357" stroke="#d1d9e0" stroke-width="1"/>
    <line x1="964" y1="350" x2="964" y2="357" stroke="#d1d9e0" stroke-width="1"/>
    <line x1="973" y1="350" x2="973" y2="357" stroke="#d1d9e0" stroke-width="1"/>
    <line x1="982" y1="350" x2="982" y2="357" stroke="#d1d9e0" stroke-width="1"/>
    <line x1="991" y1="350" x2="991" y2="357" stroke="#d1d9e0" stroke-width="1"/>
    <line x1="1000" y1="350" x2="1000" y2="357" stroke="#d1d9e0" stroke-width="1"/>
    <line x1="1009" y1="350" x2="1009" y2="357" stroke="#d1d9e0" stroke-width="1"/>
    <line x1="1018" y1="350" x2="1018" y2="357" stroke="#d1d9e0" stroke-width="1"/>
    <line x1="1027" y1="350" x2="1027" y2="357" stroke="#d1d9e0" stroke-width="1"/>
    <line x1="1036" y1="350" x2="1036" y2="370" stroke="#59636e" stroke-width="1.5"/>
    <text x="1036" y="380" fill="#59636e" font-size="12" font-family="ui-monospace, SFMono-Regular, Menlo, monospace" text-anchor="middle" letter-spacing="0.4">108</text>
    <line x1="1045" y1="350" x2="1045" y2="357" stroke="#d1d9e0" stroke-width="1"/>
    <line x1="1054" y1="350" x2="1054" y2="357" stroke="#d1d9e0" stroke-width="1"/>
    <line x1="1063" y1="350" x2="1063" y2="357" stroke="#d1d9e0" stroke-width="1"/>
    <line x1="1072" y1="350" x2="1072" y2="357" stroke="#d1d9e0" stroke-width="1"/>
    <line x1="1081" y1="350" x2="1081" y2="357" stroke="#d1d9e0" stroke-width="1"/>
    <line x1="1090" y1="350" x2="1090" y2="357" stroke="#d1d9e0" stroke-width="1"/>
    <line x1="1099" y1="350" x2="1099" y2="357" stroke="#d1d9e0" stroke-width="1"/>
    <line x1="1108" y1="350" x2="1108" y2="357" stroke="#d1d9e0" stroke-width="1"/>
    <line x1="1117" y1="350" x2="1117" y2="357" stroke="#d1d9e0" stroke-width="1"/>
    <line x1="1126" y1="350" x2="1126" y2="357" stroke="#d1d9e0" stroke-width="1"/>
    <line x1="1135" y1="350" x2="1135" y2="357" stroke="#d1d9e0" stroke-width="1"/>
  </g>
</svg>
